<svg width="123" height="36" viewBox="0 0 123 36" fill="none" xmlns="http://www.w3.org/2000/svg">
<path d="M65.9887 26.5845H60.8138L52.677 15.977V26.5845H48.1855V3.94641H52.677V13.9395L60.4883 3.94641H65.6633L57.2336 14.9421L65.9887 26.5845Z" fill="white"/>
<path d="M81.1633 3.94641V8.21532H72.7011V26.5845H68.2096V3.94641H81.1633Z" fill="white"/>
<path d="M91.8033 3.49365C95.2316 3.49365 98.0632 4.62556 100.298 6.88937C102.533 9.13162 103.65 11.9237 103.65 15.2655C103.65 18.5857 102.533 21.3778 100.298 23.6416C98.0632 25.9054 95.2316 27.0373 91.8033 27.0373C89.742 27.0373 87.8435 26.563 86.1076 25.6143C84.3718 24.6441 83.0156 23.3397 82.0392 21.7012L85.9123 19.4697C86.4548 20.4615 87.2468 21.2484 88.2883 21.8305C89.3515 22.3911 90.5232 22.6714 91.8033 22.6714C93.6477 22.6714 95.1991 22.1971 96.4576 21.2484C97.716 20.2782 98.5406 18.9738 98.9311 17.3352H88.7765V13.1634H98.9311C98.5406 11.5248 97.716 10.2312 96.4576 9.28255C95.1991 8.31234 93.6477 7.82724 91.8033 7.82724C90.5232 7.82724 89.3623 8.1183 88.3208 8.70042C87.2793 9.26098 86.4765 10.0479 85.9123 11.0613L82.0392 8.82978C83.0156 7.19121 84.3718 5.89761 86.1076 4.94896C87.8652 3.97876 89.7637 3.49365 91.8033 3.49365Z" fill="white"/>
<path d="M118.152 3.94641H122.643L115.808 20.3429C113.986 24.7412 110.991 26.8217 106.825 26.5845V22.4127C108.04 22.5205 109.017 22.3588 109.755 21.9276C110.514 21.4748 111.143 20.7525 111.642 19.7608L104.189 3.94641H108.68L113.66 14.8774L118.152 3.94641Z" fill="white"/>
<path fill-rule="evenodd" clip-rule="evenodd" d="M0.588769 26.509L19.8762 35.7723C19.9319 35.7992 19.993 35.8132 20.0549 35.8132C20.1168 35.8132 20.1779 35.7992 20.2336 35.7723L39.4933 26.5217C39.5699 26.4915 39.6356 26.4391 39.682 26.3713C39.7283 26.3036 39.7531 26.2236 39.7532 26.1417L39.7522 3.44766C39.7521 3.3921 39.7405 3.33715 39.7181 3.28623C39.6901 3.22126 39.6452 3.16483 39.5881 3.12269L39.5455 3.09411C39.4902 3.06269 39.4283 3.04446 39.3647 3.04088C39.3011 3.0373 39.2376 3.04846 39.179 3.07347L36.8093 4.09284L36.8066 1.84133C36.8069 1.78282 36.7948 1.72491 36.7709 1.67143C36.7256 1.57322 36.643 1.49689 36.5411 1.45918C36.4393 1.42147 36.3265 1.42547 36.2276 1.47031L33.7848 2.5823V0.408592H33.7838C33.7836 0.348949 33.7704 0.290062 33.7449 0.236052C33.7166 0.175523 33.6736 0.122951 33.6197 0.0830922L33.5665 0.0492173C33.5103 0.019494 33.448 0.00316173 33.3844 0.00150826C33.3208 -0.000145214 33.2576 0.0129267 33.2 0.0396917L20.0546 6.1644L6.94333 0.0555691C6.88256 0.0204704 6.81377 0.00136741 6.74349 7.07248e-05C6.67321 -0.00122596 6.60376 0.0153266 6.54171 0.0481594L6.48951 0.0815052C6.43817 0.119404 6.39649 0.168736 6.36781 0.225541C6.33914 0.282346 6.32427 0.345041 6.32439 0.408592V2.5823L3.9152 1.48513C3.85256 1.44972 3.78167 1.43128 3.70961 1.43167C3.63755 1.43205 3.56686 1.45124 3.50461 1.48731C3.44236 1.52338 3.39074 1.57507 3.35492 1.6372C3.3191 1.69933 3.30034 1.76972 3.30051 1.84133V4.09284L0.965888 3.08934C0.903946 3.05548 0.834291 3.03799 0.763595 3.03855C0.692899 3.0391 0.623534 3.05769 0.562139 3.09252L0.520058 3.12057C0.46896 3.15866 0.427486 3.20805 0.398919 3.26482C0.370352 3.32159 0.355477 3.38419 0.355469 3.44766V26.1417H0.356533C0.356663 26.2184 0.378512 26.2935 0.41958 26.3585C0.460648 26.4234 0.519276 26.4756 0.588769 26.509ZM32.2507 3.95092L22.974 8.17343L20.9659 7.23821L32.2507 1.97992V3.95092ZM20.0535 9.50348L18.0555 8.59367L20.0535 7.66321L22.0509 8.59367L20.0535 9.50348ZM17.1324 8.17343L7.8557 3.95092V1.97992L19.1405 7.23821L17.1324 8.17343ZM17.3162 30.3768L19.8809 29.1198L19.8953 29.1267C19.9459 29.1496 20.0008 29.1614 20.0564 29.1614C20.112 29.1614 20.1669 29.1496 20.2175 29.1267L20.2314 29.1198L22.7908 30.3768C22.8217 30.392 22.8556 30.4002 22.8901 30.4006C22.9246 30.4011 22.9587 30.3938 22.99 30.3795L35.5756 24.6565C35.621 24.6406 35.6603 24.6111 35.688 24.572C35.7158 24.5329 35.7307 24.4862 35.7306 24.4384V5.76049L37.891 4.83162V25.4498L20.0535 34.0177L2.21542 25.4498V4.83162L4.37534 5.76049V24.4384H4.3764C4.37651 24.4826 4.38937 24.5258 4.41344 24.563C4.43751 24.6001 4.4718 24.6296 4.51223 24.648L17.1068 30.3752C17.1392 30.3917 17.175 30.4004 17.2113 30.4007C17.2477 30.4009 17.2836 30.3928 17.3162 30.3768ZM32.4063 4.38809V6.35168L25.4679 9.33518L23.5259 8.43065L32.4063 4.38809ZM7.7007 6.35168V4.38809L16.5806 8.43065L14.639 9.33518L7.7007 6.35168ZM4.84247 5.79383L7.07802 6.75498V23.0517H7.07962C7.07956 23.1255 7.10088 23.1977 7.14102 23.2597C7.18117 23.3218 7.23844 23.371 7.306 23.4016L19.3355 28.8716L17.2091 29.9132L4.84247 24.2902V5.79383ZM33.0284 6.75498L35.2645 5.79383V24.2902L22.8973 29.9132L20.7768 28.8716L32.7701 23.4159C32.8456 23.3889 32.9109 23.3395 32.9571 23.2743C33.0033 23.2092 33.0282 23.1315 33.0284 23.0517V6.75498ZM32.8729 6.31887V4.34522L35.1084 3.32796V5.35771L32.8729 6.31887ZM7.23356 6.31887L4.99854 5.35771V3.32796L7.23356 4.34522V6.31887ZM21.8885 24.1272L22.3098 27.0424L20.4077 25.4663L21.8885 24.1272ZM22.2251 23.1973V23.1946H22.2288L22.2251 23.1973ZM21.0975 15.3688L20.9856 14.5982H22.0243L21.0975 15.3688ZM20.9196 14.1346L20.3086 9.89567L22.6022 8.85143L25.2969 10.1058C25.348 10.1299 25.4038 10.1425 25.4604 10.1426C25.517 10.1427 25.5728 10.1303 25.624 10.1063L32.2507 7.25726V22.8046L22.7887 27.1096L22.3055 23.7514L22.9879 23.1343C23.0228 23.1029 23.0473 23.0617 23.0581 23.0161C23.069 22.9706 23.0657 22.9229 23.0486 22.8792C23.0316 22.8356 23.0017 22.7981 22.9628 22.7718C22.9239 22.7454 22.8778 22.7308 22.8307 22.731H22.158L21.1747 15.9076L22.8164 14.5442C22.8532 14.5138 22.8796 14.4728 22.8921 14.4268C22.9046 14.3808 22.9026 14.3322 22.8862 14.2874C22.8698 14.2427 22.84 14.204 22.8007 14.1768C22.7614 14.1495 22.7146 14.135 22.6667 14.1351V14.1346H20.9196ZM17.8818 23.1946L17.8813 23.1973L17.8776 23.1946H17.8818ZM17.7977 27.0424L18.2174 24.1272L19.6993 25.4663L17.7977 27.0424ZM19.1203 14.5982L19.0095 15.3688L18.0821 14.5982H19.1203ZM17.8014 23.7514L17.3178 27.1075L7.8557 22.8046V7.25726L14.4926 10.1111C14.5428 10.1327 14.5971 10.1433 14.6519 10.1424C14.7066 10.1415 14.7605 10.129 14.81 10.1058L17.5037 8.85143L19.7983 9.89567L19.1869 14.1346H17.4392C17.3901 14.1346 17.3422 14.1499 17.3024 14.1785C17.2626 14.2071 17.233 14.2475 17.2176 14.2938C17.2023 14.3402 17.202 14.3902 17.217 14.4367C17.2319 14.4831 17.2612 14.5238 17.3007 14.5527L18.9312 15.9076L17.9484 22.731L17.2752 22.7315C17.2281 22.7315 17.1822 22.7456 17.1434 22.772C17.1045 22.7984 17.0747 22.8358 17.0577 22.8794C17.0407 22.923 17.0373 22.9706 17.0481 23.0161C17.0589 23.0616 17.0832 23.1028 17.118 23.1343L17.8014 23.7514ZM18.0454 27.4383L20.0535 25.7732L22.0632 27.4404L20.0561 28.3529L18.0454 27.4383ZM18.3522 23.1946H19.9826H21.7548L21.8091 23.5736L20.0535 25.1603L18.2973 23.5736L18.3522 23.1946ZM18.4193 22.731L19.3829 16.0447H20.7241L21.6871 22.731H18.4193ZM19.4494 15.5806L19.5906 14.5982H20.5153L20.6575 15.5806H19.4494ZM19.6577 14.1346L20.0535 11.3903L20.4492 14.1346H19.6577ZM1.65773 26.0389L19.8846 34.793C19.9372 34.8185 19.995 34.8318 20.0535 34.8318C20.112 34.8318 20.1697 34.8185 20.2223 34.793L38.4237 26.0511C38.4959 26.0223 38.5579 25.9727 38.6016 25.9087C38.6452 25.8447 38.6686 25.7691 38.6687 25.6917L38.6676 4.24572C38.6674 4.19311 38.6566 4.14108 38.6357 4.09276C38.6092 4.03143 38.567 3.97812 38.5131 3.93821L38.4721 3.91122C38.42 3.8815 38.3616 3.8643 38.3016 3.86099C38.2415 3.85768 38.1816 3.86836 38.1264 3.89217L35.8866 4.85544L35.8845 2.72725C35.8846 2.672 35.873 2.61736 35.8504 2.56688C35.8076 2.47406 35.7295 2.40192 35.6332 2.36629C35.537 2.33066 35.4304 2.33447 35.3369 2.37687L33.0284 3.42747V1.37337H33.0273C33.0273 1.317 33.0148 1.26134 32.9906 1.21036C32.9641 1.15321 32.9236 1.10355 32.8729 1.06587L32.8223 1.03411C32.7693 1.00582 32.7104 0.990235 32.6503 0.988581C32.5902 0.986927 32.5305 0.999256 32.476 1.02458L20.0535 6.81268L7.66288 1.03993C7.6055 1.00648 7.54041 0.988272 7.47389 0.987067C7.40737 0.985862 7.34167 1.0017 7.2831 1.03305L7.23356 1.06428C7.18515 1.10016 7.14588 1.14681 7.11887 1.20048C7.09186 1.25415 7.07787 1.31336 7.07802 1.37337V3.42747L4.80093 2.39063C4.74174 2.35728 4.67478 2.33994 4.60674 2.34036C4.5387 2.34078 4.47196 2.35893 4.41319 2.393C4.35442 2.42707 4.30568 2.47587 4.27184 2.53453C4.23799 2.59318 4.22024 2.65964 4.22033 2.72725V4.85544L2.01408 3.90699C1.95551 3.87486 1.8896 3.85828 1.8227 3.85883C1.75581 3.85939 1.69018 3.87706 1.63217 3.91016L1.59275 3.93663C1.54439 3.97255 1.50514 4.0192 1.47814 4.07287C1.45113 4.12653 1.43712 4.18572 1.43721 4.24572V25.6917H1.43828C1.43829 25.7642 1.45889 25.8353 1.49771 25.8967C1.53653 25.9581 1.59199 26.0074 1.65773 26.0389Z" fill="white"/>
</svg>
